<svg xmlns="http://www.w3.org/2000/svg" viewBox="0 -0.5 74 58" shape-rendering="crispEdges">
<metadata>Made with Pixels to Svg https://codepen.io/shshaw/pen/XbxvNj</metadata>
<path stroke="#3f0f08" d="M1 0h72M0 1h1M73 1h1M0 2h1M73 2h1M0 3h1M73 3h1M0 4h1M73 4h1M0 5h74M0 6h1M5 6h1M68 6h1M71 6h1M73 6h1M0 7h1M5 7h1M68 7h1M73 7h1M0 8h1M5 8h1M68 8h1M73 8h1M0 9h1M68 9h1M73 9h1M0 10h1M68 10h1M73 10h1M0 11h1M68 11h1M73 11h1M0 12h1M68 12h1M73 12h1M0 13h1M68 13h1M73 13h1M0 14h1M68 14h1M73 14h1M0 15h1M68 15h1M73 15h1M0 16h1M68 16h1M73 16h1M0 17h1M68 17h1M73 17h1M0 18h1M68 18h1M73 18h1M0 19h1M68 19h1M73 19h1M0 20h1M68 20h1M73 20h1M0 21h1M68 21h1M73 21h1M0 22h1M68 22h1M73 22h1M0 23h1M68 23h1M73 23h1M0 24h1M68 24h1M73 24h1M0 25h1M68 25h1M73 25h1M0 26h1M68 26h1M73 26h1M0 27h1M68 27h1M73 27h1M0 28h1M68 28h1M73 28h1M0 29h1M68 29h1M73 29h1M0 30h1M68 30h1M73 30h1M0 31h1M68 31h1M73 31h1M0 32h1M68 32h1M73 32h1M0 33h1M68 33h1M73 33h1M0 34h1M68 34h1M73 34h1M0 35h1M68 35h1M73 35h1M0 36h1M68 36h1M73 36h1M0 37h1M68 37h1M73 37h1M0 38h1M68 38h1M73 38h1M0 39h1M68 39h1M73 39h1M0 40h1M68 40h1M73 40h1M0 41h1M68 41h1M73 41h1M0 42h1M68 42h1M73 42h1M0 43h1M68 43h1M73 43h1M0 44h1M68 44h1M73 44h1M0 45h1M68 45h1M73 45h1M0 46h1M68 46h1M73 46h1M0 47h1M68 47h1M73 47h1M0 48h1M68 48h1M73 48h1M0 49h1M5 49h1M68 49h1M73 49h1M0 50h1M5 50h1M68 50h1M73 50h1M0 51h1M5 51h1M68 51h1M73 51h1M0 52h2M4 52h5M64 52h6M73 52h1M0 53h1M73 53h1M0 54h1M73 54h1M0 55h1M73 55h1M0 56h1M73 56h1M1 57h72" />
<path stroke="#e27a3e" d="M1 1h1M72 1h1M2 2h70M2 3h3M6 3h2M9 3h6M16 3h1M20 3h1M23 3h2M26 3h2M29 3h1M32 3h1M34 3h7M42 3h1M46 3h1M48 3h4M54 3h1M64 3h1M67 3h1M69 3h3M1 4h5M8 4h1M11 4h62M1 8h4M69 8h2M72 8h1M1 9h3M69 9h3M1 10h3M69 10h3M2 11h2M69 11h3M2 12h2M69 12h1M71 12h1M1 13h3M69 13h1M71 13h1M2 14h2M69 14h1M71 14h1M1 15h3M69 15h3M1 16h3M69 16h1M71 16h1M1 17h3M69 17h3M1 18h3M69 18h3M1 19h3M69 19h3M1 20h3M69 20h3M1 21h3M69 21h3M1 22h3M69 22h3M1 23h3M69 23h3M1 24h3M69 24h1M71 24h1M1 25h3M69 25h3M1 26h1M3 26h1M69 26h1M71 26h1M1 27h3M69 27h1M71 27h1M1 28h1M3 28h1M69 28h3M1 29h1M3 29h1M69 29h1M71 29h1M1 30h3M69 30h1M71 30h1M1 31h1M3 31h1M69 31h1M71 31h1M1 32h1M3 32h1M69 32h3M1 33h1M3 33h1M69 33h1M71 33h1M1 34h1M3 34h1M69 34h3M1 35h1M3 35h1M69 35h3M1 36h3M69 36h3M1 37h1M3 37h1M69 37h3M1 38h1M3 38h1M69 38h3M1 39h3M69 39h3M1 40h3M69 40h3M1 41h3M69 41h3M1 42h3M69 42h3M1 43h3M69 43h3M1 44h1M3 44h1M69 44h3M1 45h3M69 45h3M1 46h1M3 46h1M69 46h3M1 47h1M3 47h1M69 47h3M1 48h1M3 48h1M69 48h3M1 49h3M69 49h3M1 50h3M69 50h3M1 51h4M70 51h3M1 53h1M72 53h1M2 54h70M2 55h4M7 55h1M12 55h1M14 55h18M33 55h1M36 55h1M42 55h1M45 55h1M47 55h14M63 55h1M65 55h1M69 55h3M1 56h72" />
<path stroke="#ffbe65" d="M2 1h70M1 2h1M72 2h1M1 3h1M28 3h1M30 3h2M33 3h1M41 3h1M43 3h3M47 3h1M72 3h1M4 9h1M72 9h1M4 10h1M72 10h1M4 11h1M72 11h1M4 12h1M72 12h1M4 13h1M72 13h1M4 14h1M72 14h1M4 15h1M72 15h1M4 16h1M72 16h1M4 17h1M72 17h1M4 18h1M72 18h1M4 19h1M72 19h1M4 20h1M72 20h1M4 21h1M72 21h1M4 22h1M72 22h1M4 23h1M72 23h1M4 24h1M70 24h1M72 24h1M4 25h1M72 25h1M4 26h1M70 26h1M72 26h1M4 27h1M70 27h1M72 27h1M4 28h1M72 28h1M4 29h1M70 29h1M72 29h1M4 30h1M70 30h1M72 30h1M4 31h1M70 31h1M72 31h1M4 32h1M72 32h1M4 33h1M70 33h1M72 33h1M4 34h1M72 34h1M4 35h1M72 35h1M4 36h1M72 36h1M4 37h1M72 37h1M4 38h1M72 38h1M4 39h1M72 39h1M4 40h1M72 40h1M4 41h1M72 41h1M4 42h1M72 42h1M4 43h1M72 43h1M2 44h1M4 44h1M72 44h1M4 45h1M72 45h1M2 46h1M4 46h1M72 46h1M2 47h1M4 47h1M72 47h1M2 48h1M4 48h1M72 48h1M4 49h1M72 49h1M4 50h1M72 50h1M2 53h70M1 54h1M72 54h1M1 55h1M6 55h1M8 55h4M13 55h1M32 55h1M34 55h2M37 55h5M43 55h2M46 55h1M72 55h1" />
<path stroke="#96473a" d="M5 3h1M8 3h1M15 3h1M17 3h3M21 3h2M25 3h1M52 3h2M55 3h9M65 3h2M68 3h1M6 4h2M9 4h2M1 6h4M6 6h62M69 6h2M72 6h1M1 7h4M65 7h1M67 7h1M69 7h4M66 8h2M71 8h1M5 9h1M67 9h1M5 10h1M67 10h1M1 11h1M5 11h1M67 11h1M1 12h1M5 12h1M67 12h1M70 12h1M5 13h1M67 13h1M70 13h1M1 14h1M5 14h1M67 14h1M70 14h1M5 15h1M67 15h1M5 16h1M67 16h1M70 16h1M5 17h1M67 17h1M5 18h1M67 18h1M5 19h1M67 19h1M5 20h1M67 20h1M5 21h1M67 21h1M5 22h1M67 22h1M5 23h1M67 23h1M5 24h1M67 24h1M5 25h1M67 25h1M2 26h1M5 26h1M67 26h1M5 27h1M67 27h1M2 28h1M5 28h1M67 28h1M2 29h1M5 29h1M67 29h1M5 30h1M67 30h1M2 31h1M5 31h1M67 31h1M2 32h1M5 32h1M67 32h1M2 33h1M5 33h1M67 33h1M2 34h1M5 34h1M67 34h1M2 35h1M5 35h1M67 35h1M5 36h1M67 36h1M2 37h1M5 37h1M67 37h1M2 38h1M5 38h1M67 38h1M5 39h1M67 39h1M5 40h1M67 40h1M5 41h1M67 41h1M5 42h1M67 42h1M5 43h1M67 43h1M5 44h1M67 44h1M5 45h1M67 45h1M5 46h1M67 46h1M5 47h1M67 47h1M5 48h1M67 48h1M67 49h1M6 50h1M67 50h1M6 51h2M66 51h2M69 51h1M2 52h2M9 52h55M70 52h3M61 55h2M64 55h1M66 55h3" />
<path stroke="#db8053" d="M6 7h59M66 7h1M6 8h21M35 8h31M6 9h2M9 9h1M64 9h3M6 10h1M8 10h1M65 10h2M6 11h1M65 11h2M6 12h1M65 12h2M65 13h2M65 14h2M65 15h2M65 16h2M65 17h2M65 18h2M65 19h2M65 20h2M65 21h2M65 22h2M65 23h2M65 24h2M65 25h2M65 26h2M65 27h2M65 28h2M65 29h2M65 30h2M65 31h2M65 32h2M65 33h2M65 34h2M65 35h2M65 36h2M65 37h2M65 38h2M65 39h2M65 40h2M65 41h2M6 42h1M65 42h2M65 43h2M6 44h1M65 44h2M6 45h1M65 45h2M6 46h1M65 46h2M6 47h1M64 47h3M6 48h2M64 48h3M6 49h2M63 49h1M65 49h2M7 50h3M64 50h3M8 51h7M16 51h1M62 51h4" />
<path stroke="#f9b163" d="M27 8h2M33 8h2M8 9h1M10 9h2M13 9h1M58 9h1M60 9h4M7 10h1M9 10h1M62 10h3M7 11h1M64 11h1M64 12h1M6 13h1M64 13h1M6 14h1M6 15h1M64 15h1M6 16h1M6 18h1M6 41h1M64 42h1M6 43h1M64 44h1M64 45h1M7 46h1M63 46h2M7 47h1M62 47h1M63 48h1M8 49h1M61 49h1M64 49h1M10 50h2M60 50h1M62 50h2M15 51h1M17 51h2M20 51h1M56 51h1M58 51h4" />
<path stroke="#ffd789" d="M29 8h4M12 9h1M14 9h44M59 9h1M10 10h52M8 11h56M7 12h57M7 13h57M7 14h58M7 15h57M7 16h58M6 17h59M7 18h58M6 19h59M6 20h59M6 21h59M6 22h59M6 23h59M6 24h59M6 25h59M6 26h59M6 27h59M6 28h59M6 29h59M6 30h59M6 31h59M6 32h59M6 33h59M6 34h59M6 35h59M6 36h59M6 37h59M6 38h59M6 39h59M6 40h59M7 41h58M7 42h57M7 43h58M7 44h57M7 45h57M8 46h55M8 47h54M63 47h1M8 48h55M9 49h52M62 49h1M12 50h48M61 50h1M19 51h1M21 51h35M57 51h1" />
</svg>