<svg xmlns="http://www.w3.org/2000/svg" viewBox="0 -0.5 12 8" shape-rendering="crispEdges">
<metadata>Made with Pixels to Svg https://codepen.io/shshaw/pen/XbxvNj</metadata>
<path stroke="#7aceff" d="M0 0h6M7 0h5M11 1h1M11 2h1M11 3h1M11 4h1M11 5h1M11 6h1" />
<path stroke="#ffffa7" d="M6 0h1M0 5h1M11 7h1" />
<path stroke="#0079e6" d="M0 1h1M2 7h1M9 7h1" />
<path stroke="#80eaff" d="M1 1h2M4 1h6M0 2h5M6 2h5M0 3h8M9 3h2M0 4h3M4 4h2M7 4h4M1 5h8M10 5h1M0 6h6M7 6h4M0 7h2M3 7h6M10 7h1" />
<path stroke="#cab7f3" d="M3 1h1M9 5h1" />
<path stroke="#0dd20d" d="M10 1h1M5 2h1" />
<path stroke="#ff3700" d="M8 3h1M3 4h1" />
<path stroke="#ffb4e7" d="M6 4h1" />
<path stroke="#8388fd" d="M6 6h1" />
</svg>