<svg xmlns="http://www.w3.org/2000/svg" viewBox="0 -0.5 398 183" shape-rendering="crispEdges">
<metadata>Made with Pixels to Svg https://codepen.io/shshaw/pen/XbxvNj</metadata>
<path stroke="#3f0f08" d="M26 0h123M159 0h213M23 1h3M149 1h2M157 1h2M372 1h3M7 2h6M21 2h2M151 2h6M375 2h2M385 2h6M5 3h2M13 3h2M20 3h1M377 3h1M383 3h2M391 3h2M3 4h2M15 4h1M19 4h1M378 4h1M382 4h1M393 4h2M2 5h1M16 5h1M18 5h1M379 5h1M381 5h1M395 5h1M1 6h1M17 6h2M379 6h2M396 6h1M1 7h1M17 7h1M380 7h1M396 7h1M1 8h1M7 8h5M17 8h1M380 8h1M386 8h5M396 8h1M0 9h1M6 9h1M17 9h1M380 9h1M391 9h1M397 9h1M0 10h1M5 10h1M17 10h1M24 10h350M380 10h1M392 10h1M397 10h1M0 11h1M5 11h1M17 11h1M23 11h1M374 11h1M380 11h1M392 11h1M397 11h1M0 12h1M5 12h1M16 12h1M22 12h1M375 12h1M381 12h1M392 12h1M397 12h1M0 13h1M5 13h1M16 13h1M22 13h1M375 13h1M381 13h1M392 13h1M397 13h1M0 14h1M5 14h1M16 14h1M21 14h1M376 14h1M381 14h1M392 14h1M397 14h1M0 15h1M5 15h1M15 15h1M21 15h1M376 15h1M382 15h1M392 15h1M397 15h1M0 16h1M10 16h5M21 16h1M376 16h1M383 16h5M397 16h1M1 17h1M20 17h1M377 17h1M396 17h1M2 18h1M20 18h1M377 18h1M395 18h1M3 19h1M19 19h1M378 19h1M394 19h1M17 20h2M379 20h2M14 21h3M381 21h3M13 22h1M384 22h1M10 23h1M387 23h1M10 24h1M387 24h1M10 158h1M387 158h1M10 159h1M387 159h1M11 160h3M384 160h3M14 161h3M381 161h3M17 162h2M379 162h2M3 163h1M19 163h1M378 163h1M394 163h1M2 164h1M20 164h1M377 164h1M395 164h1M20 165h1M377 165h1M10 166h5M21 166h1M376 166h1M383 166h5M0 167h1M15 167h1M21 167h1M376 167h1M382 167h1M397 167h1M0 168h1M16 168h1M21 168h1M376 168h1M381 168h1M397 168h1M0 169h1M5 169h1M16 169h1M22 169h1M375 169h1M381 169h1M392 169h1M397 169h1M0 170h1M5 170h1M16 170h1M22 170h1M375 170h1M381 170h1M392 170h1M397 170h1M0 171h1M5 171h1M17 171h1M23 171h1M374 171h1M380 171h1M392 171h1M397 171h1M0 172h1M5 172h1M17 172h1M24 172h350M380 172h1M392 172h1M397 172h1M0 173h1M6 173h1M17 173h1M380 173h1M391 173h1M397 173h1M1 174h1M7 174h4M17 174h1M380 174h1M387 174h4M396 174h1M1 175h1M17 175h1M380 175h1M396 175h1M1 176h1M17 176h2M379 176h2M396 176h1M2 177h1M16 177h1M18 177h1M379 177h1M381 177h1M395 177h1M3 178h2M15 178h1M19 178h1M378 178h1M382 178h1M393 178h2M5 179h3M13 179h2M20 179h1M377 179h1M383 179h2M390 179h3M8 180h5M21 180h2M290 180h6M375 180h1M385 180h5M23 181h3M288 181h2M296 181h2M372 181h3M26 182h262M298 182h74" />
<path stroke="#e27a3e" d="M26 1h2M148 1h1M159 1h1M370 1h2M24 2h1M150 2h1M157 2h1M373 2h1M22 3h127M159 3h217M6 4h1M13 4h1M21 4h14M36 4h42M79 4h1M83 4h1M85 4h14M100 4h1M103 4h1M105 4h86M192 4h1M196 4h1M198 4h2M201 4h1M205 4h1M207 4h86M294 4h1M297 4h1M299 4h14M314 4h1M318 4h1M320 4h42M363 4h14M384 4h1M391 4h1M4 5h1M7 5h6M14 5h1M20 5h2M23 5h1M26 5h1M30 5h1M32 5h23M56 5h1M59 5h29M91 5h1M94 5h2M97 5h27M125 5h1M128 5h1M133 5h12M146 5h1M150 5h1M152 5h94M247 5h1M251 5h1M253 5h12M269 5h1M272 5h1M274 5h27M302 5h2M306 5h1M310 5h29M341 5h1M343 5h23M367 5h1M371 5h1M374 5h1M376 5h2M383 5h1M385 5h6M393 5h1M3 6h1M5 6h9M15 6h1M19 6h64M84 6h35M120 6h76M197 6h4M202 6h76M279 6h35M315 6h64M382 6h1M384 6h9M394 6h1M4 7h3M12 7h3M19 7h2M22 7h4M27 7h2M32 7h1M34 7h29M64 7h1M68 7h1M70 7h11M83 7h1M86 7h1M88 7h7M98 7h1M100 7h17M119 7h1M122 7h1M124 7h37M163 7h1M165 7h11M177 7h1M181 7h1M183 7h11M196 7h1M201 7h1M204 7h11M216 7h1M220 7h1M222 7h11M234 7h1M237 7h37M275 7h1M278 7h1M281 7h17M299 7h1M303 7h7M311 7h1M314 7h1M317 7h11M329 7h1M333 7h1M335 7h29M365 7h1M369 7h2M372 7h4M377 7h2M383 7h3M391 7h3M2 8h1M4 8h2M13 8h2M19 8h1M21 8h15M37 8h324M362 8h15M378 8h1M383 8h2M392 8h2M395 8h1M3 9h2M13 9h2M18 9h2M21 9h1M376 9h1M378 9h2M383 9h2M393 9h2M3 10h2M13 10h2M18 10h1M20 10h2M376 10h2M379 10h1M383 10h2M393 10h2M3 11h2M6 11h1M13 11h2M18 11h1M20 11h2M376 11h2M379 11h1M383 11h2M391 11h1M393 11h2M2 12h3M12 12h3M18 12h1M20 12h1M377 12h1M379 12h1M383 12h3M393 12h3M3 13h2M12 13h4M17 13h4M377 13h4M382 13h4M393 13h2M2 14h3M11 14h3M18 14h3M377 14h3M384 14h3M393 14h3M2 15h2M18 15h2M378 15h2M394 15h2M3 16h1M17 16h3M378 16h3M394 16h1M3 17h1M14 17h1M16 17h4M378 17h4M383 17h1M394 17h1M10 18h1M13 18h1M15 18h4M379 18h4M384 18h1M387 18h1M13 19h5M380 19h5M8 23h2M388 23h2M8 159h2M388 159h2M15 162h1M382 162h1M9 163h6M18 163h1M379 163h1M383 163h6M3 164h1M10 164h7M19 164h1M378 164h1M381 164h7M394 164h1M15 165h4M379 165h4M2 166h1M17 166h2M379 166h2M395 166h1M3 167h1M12 167h1M17 167h2M379 167h2M385 167h1M394 167h1M3 168h2M12 168h2M17 168h3M378 168h3M384 168h2M393 168h2M3 169h2M12 169h3M18 169h2M378 169h2M383 169h3M393 169h2M3 170h2M13 170h2M18 170h2M21 170h1M376 170h1M378 170h2M383 170h1M393 170h2M3 171h1M6 171h1M14 171h1M18 171h3M377 171h3M383 171h1M391 171h1M393 171h2M3 172h1M6 172h1M14 172h1M18 172h3M22 172h1M375 172h1M377 172h3M383 172h1M394 172h1M2 173h2M5 173h1M14 173h1M18 173h4M376 173h4M383 173h1M392 173h1M394 173h2M2 174h2M6 174h1M13 174h3M19 174h360M382 174h3M391 174h1M393 174h3M3 175h2M12 175h4M19 175h4M24 175h1M28 175h1M30 175h15M46 175h1M50 175h1M52 175h29M82 175h1M86 175h1M88 175h14M103 175h1M106 175h1M108 175h50M159 175h1M163 175h1M165 175h29M195 175h1M202 175h1M204 175h29M234 175h1M238 175h1M240 175h26M267 175h15M283 175h1M287 175h1M289 175h14M304 175h1M307 175h1M309 175h9M319 175h1M323 175h1M325 175h29M355 175h1M359 175h1M361 175h18M382 175h5M392 175h3M4 176h11M20 176h35M56 176h1M59 176h1M62 176h29M94 176h1M97 176h2M100 176h27M128 176h1M131 176h1M136 176h12M149 176h1M153 176h1M155 176h88M244 176h1M248 176h1M250 176h12M263 176h9M273 176h1M277 176h1M279 176h13M295 176h1M298 176h2M301 176h27M329 176h1M332 176h1M338 176h40M383 176h12M5 177h9M20 177h30M51 177h35M87 177h35M123 177h185M310 177h1M316 177h7M324 177h35M360 177h18M383 177h10M7 178h5M21 178h16M38 178h1M43 178h1M45 178h3M50 178h1M53 178h1M55 178h11M67 178h1M71 178h1M73 178h11M86 178h1M89 178h1M91 178h7M101 178h1M103 178h17M122 178h1M125 178h1M127 178h37M166 178h1M168 178h11M180 178h1M184 178h1M186 178h11M201 178h11M213 178h1M217 178h1M219 178h11M231 178h1M234 178h28M264 178h1M266 178h1M268 178h1M272 178h1M274 178h25M302 178h1M304 178h13M318 178h3M323 178h1M326 178h1M328 178h18M347 178h1M352 178h1M354 178h3M359 178h1M362 178h1M364 178h13M385 178h6M23 179h352" />
<path stroke="#ef9343" d="M28 1h1M369 1h1M25 2h123M160 2h213M149 3h2M157 3h2M7 4h1M12 4h1M35 4h1M99 4h1M101 4h2M104 4h1M293 4h1M295 4h2M298 4h1M362 4h1M385 4h1M390 4h1M6 5h1M13 5h1M145 5h1M147 5h3M151 5h1M246 5h1M248 5h3M252 5h1M384 5h1M391 5h1M14 6h1M83 6h1M119 6h1M196 6h1M201 6h1M278 6h1M314 6h1M383 6h1M15 7h1M21 7h1M26 7h1M29 7h3M33 7h1M81 7h2M84 7h2M87 7h1M95 7h3M99 7h1M117 7h2M120 7h2M123 7h1M161 7h2M164 7h1M194 7h2M197 7h4M202 7h2M233 7h1M235 7h2M274 7h1M276 7h2M279 7h2M298 7h1M300 7h3M310 7h1M312 7h2M315 7h2M364 7h1M366 7h3M371 7h1M376 7h1M382 7h1M3 8h1M20 8h1M377 8h1M394 8h1M2 9h1M20 9h1M377 9h1M395 9h1M2 10h1M19 10h1M378 10h1M395 10h1M2 11h1M19 11h1M378 11h1M395 11h1M15 12h1M19 12h1M378 12h1M382 12h1M2 13h1M395 13h1M9 162h1M14 162h1M383 162h1M388 162h1M15 163h1M17 163h1M380 163h1M382 163h1M17 164h1M380 164h1M3 165h1M394 165h1M2 167h1M13 167h1M19 167h2M377 167h2M384 167h1M395 167h1M15 169h1M382 169h1M20 170h1M377 170h1M4 171h1M395 171h1M2 172h1M21 172h1M376 172h1M393 172h1M395 172h1M15 173h1M22 173h1M34 173h2M38 173h2M41 173h7M49 173h1M52 173h1M57 173h2M63 173h1M70 173h2M74 173h2M77 173h7M85 173h1M88 173h1M93 173h2M99 173h1M106 173h2M110 173h2M113 173h7M121 173h1M124 173h1M129 173h2M135 173h1M142 173h2M146 173h2M149 173h7M157 173h1M160 173h1M165 173h2M171 173h1M226 173h1M231 173h2M237 173h1M240 173h1M242 173h7M250 173h2M254 173h2M375 173h1M382 173h1M4 174h1M5 175h2M10 175h2M23 175h1M25 175h3M29 175h1M102 175h1M104 175h2M107 175h1M303 175h1M305 175h2M308 175h1M387 175h1M148 176h1M150 176h3M154 176h1M243 176h1M245 176h3M249 176h1M262 176h1M272 176h1M274 176h3M278 176h1M50 177h1M86 177h1M122 177h1M323 177h1M359 177h1M48 178h2M51 178h2M54 178h1M84 178h2M87 178h2M90 178h1M98 178h3M102 178h1M120 178h2M123 178h2M126 178h1M164 178h2M167 178h1M197 178h4M230 178h1M232 178h2M299 178h3M303 178h1M321 178h2M324 178h2M327 178h1M357 178h2M360 178h2M363 178h1" />
<path stroke="#ffbe65" d="M29 1h119M160 1h209M148 2h2M158 2h2M151 3h6M8 4h4M386 4h4M5 5h1M392 5h1M4 6h1M393 6h1M3 7h1M394 7h1M15 8h1M382 8h1M15 9h1M382 9h1M15 10h1M382 10h1M15 11h1M382 11h1M17 14h1M380 14h1M17 15h1M380 15h1M16 16h1M381 16h1M15 17h1M382 17h1M14 18h1M383 18h1M163 21h1M165 21h5M171 21h3M175 21h1M222 21h1M224 21h3M228 21h5M234 21h1M206 22h2M205 23h2M14 24h1M383 24h1M119 25h2M190 25h2M277 25h2M13 26h1M384 26h1M14 31h3M18 31h3M22 31h1M375 31h1M377 31h3M381 31h3M162 39h2M234 39h2M13 41h4M51 41h2M54 41h5M60 41h2M63 41h1M334 41h1M336 41h2M339 41h5M345 41h2M381 41h4M12 42h2M107 42h2M289 42h2M384 42h2M11 43h2M14 43h2M83 43h1M85 43h1M111 43h2M285 43h2M312 43h1M314 43h1M382 43h2M385 43h2M11 44h3M52 44h1M64 44h2M67 44h5M73 44h2M76 44h1M113 44h3M282 44h3M321 44h1M323 44h2M326 44h5M332 44h2M345 44h1M384 44h3M13 45h5M19 45h2M22 45h2M117 45h6M275 45h6M374 45h2M377 45h2M380 45h5M16 47h4M21 47h1M376 47h1M378 47h4M11 55h1M13 55h2M17 55h1M380 55h1M383 55h2M386 55h1M30 57h1M367 57h1M195 58h1M197 58h1M200 58h1M202 58h1M11 61h2M198 61h2M385 61h2M11 64h2M14 64h2M382 64h2M385 64h2M16 65h7M24 65h2M27 65h1M370 65h1M372 65h2M375 65h7M42 66h4M47 66h1M350 66h1M352 66h4M11 67h2M385 67h2M11 74h6M381 74h6M11 75h1M21 75h3M374 75h3M386 75h1M15 76h4M379 76h4M12 77h1M14 77h1M383 77h1M385 77h1M13 78h1M17 78h3M21 78h2M375 78h2M378 78h3M384 78h1M11 79h4M16 79h2M380 79h2M383 79h4M12 80h1M385 80h1M11 81h1M386 81h1M11 82h2M14 82h1M19 82h4M375 82h4M383 82h1M385 82h2M11 84h14M373 84h14M13 85h3M382 85h3M15 86h6M22 86h2M374 86h2M377 86h6M162 93h1M164 93h5M170 93h3M174 93h1M223 93h1M225 93h3M229 93h5M235 93h1M189 94h2M40 95h1M42 95h2M45 95h5M51 95h3M190 95h2M344 95h3M348 95h5M354 95h2M357 95h1M142 96h1M144 96h2M147 96h3M188 96h1M191 96h3M206 96h1M208 96h2M248 96h3M252 96h2M255 96h1M11 97h1M13 97h2M16 97h1M207 97h2M381 97h1M383 97h2M386 97h1M30 98h1M32 98h5M38 98h2M51 98h1M54 98h3M341 98h3M346 98h1M358 98h2M361 98h5M367 98h1M61 99h2M64 99h5M70 99h2M73 99h1M324 99h1M326 99h2M329 99h5M335 99h2M11 103h5M17 103h3M21 103h1M376 103h1M378 103h3M382 103h5M12 113h4M49 113h3M53 113h2M343 113h2M346 113h3M382 113h4M11 114h2M385 114h2M11 115h1M13 115h2M383 115h2M386 115h1M11 116h2M46 116h3M51 116h1M346 116h1M349 116h3M385 116h2M12 117h5M18 117h2M21 117h2M29 117h1M31 117h2M34 117h5M40 117h2M356 117h2M359 117h5M365 117h2M368 117h1M375 117h2M378 117h2M381 117h5M15 119h4M20 119h1M182 119h1M185 119h1M187 119h2M190 119h5M205 119h3M209 119h2M215 119h1M377 119h1M379 119h4M12 127h2M16 127h1M381 127h1M384 127h2M30 128h2M33 128h1M35 128h1M362 128h1M364 128h1M366 128h2M29 129h4M34 129h1M36 129h1M361 129h1M363 129h1M365 129h4M184 130h2M187 130h5M193 130h2M196 130h1M201 130h1M203 130h2M206 130h5M212 130h2M11 133h1M180 133h3M185 133h1M197 133h4M212 133h1M215 133h3M386 133h1M175 134h1M222 134h1M11 136h1M13 136h2M383 136h2M386 136h1M15 137h7M23 137h2M26 137h1M29 137h1M368 137h1M371 137h1M373 137h2M376 137h7M41 138h4M46 138h1M351 138h1M353 138h4M11 139h1M386 139h1M206 147h2M41 148h1M43 148h2M46 148h2M205 148h2M350 148h2M353 148h2M356 148h1M189 149h1M203 149h3M207 149h2M14 150h2M17 150h1M206 150h2M380 150h1M382 150h2M28 151h1M30 151h2M33 151h5M39 151h2M357 151h2M360 151h5M366 151h2M369 151h1M13 156h4M18 156h3M22 156h1M375 156h1M377 156h3M381 156h4M10 162h4M384 162h4M16 163h1M381 163h1M18 164h1M379 164h1M19 165h1M378 165h1M3 166h1M19 166h1M378 166h1M394 166h1M2 168h1M14 168h1M20 168h1M83 168h1M85 168h1M111 168h2M128 168h2M133 168h2M150 168h8M240 168h8M263 168h2M268 168h2M285 168h2M312 168h1M314 168h1M377 168h1M383 168h1M395 168h1M2 169h1M20 169h1M47 169h3M52 169h1M64 169h2M67 169h5M73 169h2M76 169h1M113 169h3M124 169h3M136 169h1M148 169h2M158 169h3M237 169h3M248 169h2M261 169h1M271 169h3M282 169h3M321 169h1M323 169h2M326 169h5M332 169h2M345 169h1M348 169h3M377 169h1M395 169h1M2 170h1M15 170h1M30 170h1M32 170h2M35 170h5M41 170h2M117 170h6M138 170h1M146 170h2M162 170h1M235 170h1M250 170h2M259 170h1M309 170h1M311 170h1M382 170h1M395 170h1M2 171h1M15 171h1M21 171h1M376 171h1M382 171h1M4 172h1M15 172h1M382 172h1M4 173h1M23 173h11M36 173h2M40 173h1M48 173h1M50 173h2M53 173h4M59 173h4M64 173h6M72 173h2M76 173h1M84 173h1M86 173h2M89 173h4M95 173h4M100 173h6M108 173h2M112 173h1M120 173h1M122 173h2M125 173h4M131 173h4M136 173h6M144 173h2M148 173h1M156 173h1M158 173h2M161 173h4M167 173h4M172 173h54M227 173h4M233 173h4M238 173h2M241 173h1M249 173h1M252 173h2M256 173h119M393 173h1M5 174h1M392 174h1M7 175h3M388 175h4" />
<path stroke="#96473a" d="M23 2h1M374 2h1M7 3h1M12 3h1M21 3h1M376 3h1M385 3h1M390 3h1M5 4h1M14 4h1M20 4h1M377 4h1M383 4h1M392 4h1M3 5h1M15 5h1M19 5h1M130 5h2M266 5h2M378 5h1M382 5h1M394 5h1M2 6h1M16 6h1M381 6h1M395 6h1M2 7h1M18 7h1M379 7h1M395 7h1M1 9h1M7 9h2M23 9h352M389 9h2M396 9h1M22 10h2M374 10h2M16 11h1M22 11h1M375 11h1M381 11h1M7 12h1M17 12h1M380 12h1M390 12h1M21 13h1M376 13h1M6 14h1M15 14h1M382 14h1M391 14h1M6 15h1M14 15h1M16 15h1M381 15h1M383 15h1M391 15h1M1 16h1M5 16h1M15 16h1M20 16h1M377 16h1M382 16h1M392 16h1M396 16h1M2 17h1M4 17h2M10 17h4M384 17h4M392 17h2M395 17h1M4 18h1M393 18h1M4 19h1M9 19h1M388 19h1M393 19h1M9 20h1M16 20h1M381 20h1M388 20h1M9 21h2M13 21h1M384 21h1M387 21h2M8 22h3M387 22h3M8 24h2M388 24h2M8 158h2M388 158h2M8 160h3M387 160h3M9 161h5M384 161h5M16 162h1M381 162h1M4 163h1M393 163h1M4 164h1M393 164h1M2 165h1M4 165h2M10 165h4M384 165h4M392 165h2M395 165h1M1 166h1M5 166h1M15 166h1M20 166h1M377 166h1M382 166h1M392 166h1M396 166h1M1 167h1M5 167h2M10 167h1M14 167h1M16 167h1M381 167h1M383 167h1M387 167h1M391 167h2M396 167h1M1 168h1M5 168h1M10 168h1M15 168h1M382 168h1M387 168h1M392 168h1M396 168h1M1 169h1M11 169h1M21 169h1M376 169h1M386 169h1M396 169h1M1 170h1M7 170h1M11 170h1M17 170h1M380 170h1M390 170h1M396 170h1M1 171h1M7 171h1M12 171h1M16 171h1M22 171h1M375 171h1M381 171h1M390 171h1M396 171h1M1 172h1M16 172h1M23 172h1M374 172h1M381 172h1M390 172h1M396 172h1M1 173h1M8 173h1M16 173h1M381 173h1M389 173h2M396 173h1M12 174h1M16 174h1M381 174h1M2 175h1M16 175h1M18 175h1M379 175h1M381 175h1M2 176h1M16 176h1M133 176h2M334 176h3M381 176h1M395 176h1M3 177h1M15 177h1M19 177h1M312 177h3M378 177h1M382 177h1M394 177h1M5 178h1M14 178h1M20 178h1M40 178h2M262 178h1M349 178h2M377 178h1M383 178h1M392 178h1M8 179h5M21 179h1M376 179h1M385 179h5M23 180h1M289 180h1M296 180h1M374 180h1M26 181h262M298 181h74" />
<path stroke="#c1622e" d="M8 3h4M386 3h4M78 4h1M80 4h3M84 4h1M191 4h1M193 4h3M197 4h1M200 4h1M202 4h3M206 4h1M313 4h1M315 4h3M319 4h1M22 5h1M24 5h2M27 5h3M31 5h1M55 5h1M57 5h2M88 5h3M92 5h2M96 5h1M124 5h1M126 5h2M129 5h1M132 5h1M265 5h1M268 5h1M270 5h2M273 5h1M301 5h1M304 5h2M307 5h3M339 5h2M342 5h1M366 5h1M368 5h3M372 5h2M375 5h1M7 7h5M16 7h1M63 7h1M65 7h3M69 7h1M176 7h1M178 7h3M182 7h1M215 7h1M217 7h3M221 7h1M328 7h1M330 7h3M334 7h1M381 7h1M386 7h5M6 8h1M16 8h1M18 8h1M36 8h1M361 8h1M379 8h1M381 8h1M391 8h1M5 9h1M16 9h1M22 9h1M375 9h1M381 9h1M392 9h1M1 10h1M6 10h2M16 10h1M381 10h1M390 10h2M396 10h1M1 11h1M7 11h1M390 11h1M396 11h1M1 12h1M6 12h1M21 12h1M376 12h1M391 12h1M396 12h1M1 13h1M6 13h1M391 13h1M396 13h1M1 14h1M14 14h1M383 14h1M396 14h1M1 15h1M4 15h1M11 15h3M20 15h1M377 15h1M384 15h3M393 15h1M396 15h1M2 16h1M4 16h1M393 16h1M395 16h1M3 18h1M11 18h2M19 18h1M378 18h1M385 18h2M394 18h1M10 19h1M18 19h1M379 19h1M387 19h1M10 20h1M13 20h3M382 20h3M387 20h1M14 165h1M383 165h1M4 166h1M16 166h1M381 166h1M393 166h1M4 167h1M11 167h1M386 167h1M393 167h1M11 168h1M386 168h1M17 169h1M380 169h1M6 170h1M12 170h1M385 170h1M391 170h1M13 171h1M7 172h1M13 172h1M391 172h1M7 173h1M13 173h1M18 174h1M379 174h1M45 175h1M47 175h3M51 175h1M81 175h1M83 175h3M87 175h1M158 175h1M160 175h3M164 175h1M194 175h1M196 175h6M203 175h1M233 175h1M235 175h3M239 175h1M266 175h1M282 175h1M284 175h3M288 175h1M318 175h1M320 175h3M324 175h1M354 175h1M356 175h3M360 175h1M395 175h1M3 176h1M15 176h1M19 176h1M55 176h1M57 176h2M60 176h2M91 176h3M95 176h2M99 176h1M127 176h1M129 176h2M132 176h1M135 176h1M292 176h3M296 176h2M300 176h1M328 176h1M330 176h2M333 176h1M337 176h1M378 176h1M382 176h1M4 177h1M14 177h1M308 177h2M311 177h1M315 177h1M393 177h1M6 178h1M12 178h2M37 178h1M39 178h1M42 178h1M44 178h1M66 178h1M68 178h3M72 178h1M179 178h1M181 178h3M185 178h1M212 178h1M214 178h3M218 178h1M263 178h1M265 178h1M267 178h1M269 178h3M273 178h1M317 178h1M346 178h1M348 178h1M351 178h1M353 178h1M384 178h1M391 178h1M22 179h1M375 179h1M24 180h265M297 180h77" />
<path stroke="#953d35" d="M12 8h1M385 8h1M11 19h2M385 19h2M11 20h2M385 20h2M384 170h1M384 171h1M384 172h1M384 173h1M385 174h1" />
<path stroke="#280000" d="M9 9h1M12 9h1M385 9h1M388 9h1M8 10h1M12 10h1M385 10h1M389 10h1M8 11h1M389 11h1M8 12h1M389 12h1M7 13h1M390 13h1M7 14h1M390 14h1M7 15h1M390 15h1M6 16h1M391 16h1M6 17h1M9 17h1M388 17h1M391 17h1M5 18h1M392 18h1M5 19h1M392 19h1M4 20h2M8 20h1M389 20h1M392 20h2M4 21h1M8 21h1M389 21h1M393 21h1M4 22h1M7 22h1M390 22h1M393 22h1M4 23h1M7 23h1M390 23h1M393 23h1M5 24h1M7 24h1M390 24h1M392 24h1M6 25h5M387 25h5M6 26h1M10 26h1M387 26h1M391 26h1M6 27h1M9 27h1M388 27h1M391 27h1M7 28h2M389 28h2M7 29h1M390 29h1M12 30h1M385 30h1M10 31h1M13 31h1M384 31h1M387 31h1M9 32h2M387 32h2M8 33h1M10 33h1M387 33h1M389 33h1M7 34h1M10 34h2M386 34h2M390 34h1M7 35h1M10 35h1M387 35h1M390 35h1M7 36h1M10 36h1M387 36h1M390 36h1M7 37h1M10 37h1M387 37h1M390 37h1M7 38h1M10 38h1M387 38h1M390 38h1M7 39h1M10 39h1M387 39h1M390 39h1M7 40h1M10 40h1M387 40h1M390 40h1M7 41h1M10 41h1M387 41h1M390 41h1M7 42h1M10 42h1M387 42h1M390 42h1M7 43h1M10 43h1M387 43h1M390 43h1M7 44h1M10 44h1M387 44h1M390 44h1M7 45h1M10 45h1M387 45h1M390 45h1M7 46h1M10 46h1M387 46h1M390 46h1M7 47h1M10 47h1M387 47h1M390 47h1M7 48h1M10 48h1M387 48h1M390 48h1M7 49h1M10 49h1M387 49h1M390 49h1M7 50h1M10 50h1M387 50h1M390 50h1M7 51h1M10 51h1M387 51h1M390 51h1M7 52h1M10 52h1M387 52h1M390 52h1M7 53h1M10 53h1M387 53h1M390 53h1M7 54h1M10 54h1M387 54h1M390 54h1M7 55h1M10 55h1M387 55h1M390 55h1M7 56h1M10 56h1M387 56h1M390 56h1M7 57h1M10 57h1M387 57h1M390 57h1M7 58h1M10 58h1M387 58h1M390 58h1M7 59h1M10 59h1M387 59h1M390 59h1M7 60h1M10 60h1M387 60h1M390 60h1M7 61h1M10 61h1M387 61h1M390 61h1M7 62h1M10 62h1M387 62h1M390 62h1M7 63h1M10 63h1M387 63h1M390 63h1M7 64h1M10 64h1M387 64h1M390 64h1M7 65h1M10 65h1M387 65h1M390 65h1M7 66h1M10 66h1M387 66h1M390 66h1M7 67h1M10 67h1M387 67h1M390 67h1M7 68h1M10 68h1M387 68h1M390 68h1M7 69h1M10 69h1M387 69h1M390 69h1M7 70h1M10 70h1M387 70h1M390 70h1M7 71h1M10 71h1M387 71h1M390 71h1M7 72h1M10 72h1M387 72h1M390 72h1M7 73h1M10 73h1M387 73h1M390 73h1M7 74h1M10 74h1M387 74h1M390 74h1M7 75h1M10 75h1M387 75h1M390 75h1M7 76h1M10 76h1M387 76h1M390 76h1M7 77h1M10 77h1M387 77h1M390 77h1M7 78h1M10 78h1M387 78h1M390 78h1M7 79h1M10 79h1M387 79h1M390 79h1M7 80h1M10 80h1M387 80h1M390 80h1M7 81h1M10 81h1M387 81h1M390 81h1M7 82h1M10 82h1M387 82h1M390 82h1M7 83h1M10 83h1M387 83h1M390 83h1M7 84h1M10 84h1M387 84h1M390 84h1M7 85h1M10 85h1M387 85h1M390 85h1M7 86h1M10 86h1M387 86h1M390 86h1M7 87h1M10 87h1M387 87h1M390 87h1M7 88h1M10 88h1M387 88h1M390 88h1M7 89h1M10 89h1M387 89h1M390 89h1M7 90h1M10 90h1M387 90h1M390 90h1M7 91h1M10 91h1M387 91h1M390 91h1M7 92h1M10 92h1M387 92h1M390 92h1M7 93h1M10 93h1M387 93h1M390 93h1M7 94h1M10 94h1M387 94h1M390 94h1M7 95h1M10 95h1M387 95h1M390 95h1M7 96h1M10 96h1M387 96h1M390 96h1M7 97h1M10 97h1M387 97h1M390 97h1M7 98h1M10 98h1M387 98h1M390 98h1M7 99h1M10 99h1M387 99h1M390 99h1M7 100h1M10 100h1M387 100h1M390 100h1M7 101h1M10 101h1M387 101h1M390 101h1M7 102h1M10 102h1M387 102h1M390 102h1M7 103h1M10 103h1M387 103h1M390 103h1M7 104h1M10 104h1M387 104h1M390 104h1M7 105h1M10 105h1M387 105h1M390 105h1M7 106h1M10 106h1M387 106h1M390 106h1M7 107h1M10 107h1M387 107h1M390 107h1M7 108h1M10 108h1M387 108h1M390 108h1M7 109h1M10 109h1M387 109h1M390 109h1M7 110h1M10 110h1M387 110h1M390 110h1M7 111h1M10 111h1M387 111h1M390 111h1M7 112h1M10 112h1M387 112h1M390 112h1M7 113h1M10 113h1M387 113h1M390 113h1M7 114h1M10 114h1M387 114h1M390 114h1M7 115h1M10 115h1M387 115h1M390 115h1M7 116h1M10 116h1M387 116h1M390 116h1M7 117h1M10 117h1M387 117h1M390 117h1M7 118h1M10 118h1M387 118h1M390 118h1M7 119h1M10 119h1M387 119h1M390 119h1M7 120h1M10 120h1M387 120h1M390 120h1M7 121h1M10 121h1M387 121h1M390 121h1M7 122h1M10 122h1M387 122h1M390 122h1M7 123h1M10 123h1M387 123h1M390 123h1M7 124h1M10 124h1M387 124h1M390 124h1M7 125h1M10 125h1M387 125h1M390 125h1M7 126h1M10 126h1M387 126h1M390 126h1M7 127h1M10 127h1M387 127h1M390 127h1M7 128h1M10 128h1M387 128h1M390 128h1M7 129h1M10 129h1M387 129h1M390 129h1M7 130h1M10 130h1M387 130h1M390 130h1M7 131h1M10 131h1M387 131h1M390 131h1M7 132h1M10 132h1M387 132h1M390 132h1M7 133h1M10 133h1M387 133h1M390 133h1M7 134h1M10 134h1M387 134h1M390 134h1M7 135h1M10 135h1M387 135h1M390 135h1M7 136h1M10 136h1M387 136h1M390 136h1M7 137h1M10 137h1M387 137h1M390 137h1M7 138h1M10 138h1M387 138h1M390 138h1M7 139h1M10 139h1M387 139h1M390 139h1M7 140h1M10 140h1M387 140h1M390 140h1M7 141h1M10 141h1M387 141h1M390 141h1M7 142h1M10 142h1M387 142h1M390 142h1M7 143h1M10 143h1M387 143h1M390 143h1M7 144h1M10 144h1M387 144h1M390 144h1M7 145h1M10 145h1M387 145h1M390 145h1M7 146h1M10 146h1M387 146h1M390 146h1M7 147h1M10 147h1M387 147h1M390 147h1M7 148h1M10 148h2M386 148h2M390 148h1M10 149h1M387 149h1M10 150h1M387 150h1M10 151h1M13 151h1M384 151h1M387 151h1M12 152h1M385 152h1M7 153h1M11 153h1M386 153h1M390 153h1M7 154h2M12 154h1M385 154h1M389 154h2M9 155h1M12 155h1M385 155h1M388 155h1M10 156h1M12 156h1M385 156h1M387 156h1M7 157h4M12 157h1M385 157h1M387 157h4M7 158h1M11 158h1M386 158h1M390 158h1M4 159h1M7 159h1M390 159h1M393 159h1M4 160h1M7 160h1M390 160h1M393 160h1M4 161h1M8 161h1M389 161h1M393 161h1M4 162h2M8 162h1M389 162h1M392 162h2M5 163h1M392 163h1M5 164h1M392 164h1M6 165h1M9 165h1M388 165h1M391 165h1M6 166h1M391 166h1M7 167h1M390 167h1M7 168h1M390 168h1M7 169h1M390 169h1M8 170h1M389 170h1M8 171h1M389 171h1M8 172h1M12 172h1M385 172h1M389 172h1M9 173h1M12 173h1M388 173h1" />
<path stroke="#b8695c" d="M10 9h2M386 9h2M11 10h1M386 10h1M12 11h1M385 11h1M11 12h1M386 12h1M8 13h1M11 13h1M386 13h1M389 13h1M10 14h1M387 14h1M10 15h1M387 15h1M7 16h1M9 16h1M388 16h1M390 16h1M6 18h1M9 18h1M388 18h1M391 18h1M8 19h1M389 19h1M5 21h1M7 21h1M390 21h1M392 21h1M6 22h1M391 22h1M6 23h1M391 23h1M7 26h1M9 26h1M388 26h1M390 26h1M7 27h2M389 27h2M10 30h2M386 30h2M9 31h1M388 31h1M8 32h1M13 32h1M384 32h1M389 32h1M7 33h1M9 33h1M12 33h1M385 33h1M388 33h1M390 33h1M8 34h1M389 34h1M7 149h1M12 149h1M385 149h1M390 149h1M8 150h1M13 150h1M384 150h1M389 150h1M9 151h1M388 151h1M10 152h2M386 152h2M7 155h2M389 155h2M7 156h1M9 156h1M388 156h1M390 156h1M11 157h1M386 157h1M5 161h1M7 161h1M390 161h1M392 161h1M8 163h1M389 163h1M6 164h1M9 164h1M388 164h1M391 164h1M7 166h1M9 166h1M388 166h1M390 166h1M8 169h1M389 169h1M386 170h1M385 171h1M11 172h1M386 172h1M10 173h2M386 173h2" />
<path stroke="#ffcb8f" d="M9 10h2M387 10h2M9 11h1M11 11h1M386 11h1M388 11h1M9 12h1M388 12h1M10 13h1M387 13h1M8 14h1M389 14h1M9 15h1M388 15h1M7 17h1M390 17h1M8 18h1M389 18h1M6 19h1M391 19h1M6 20h2M390 20h2M6 21h1M391 21h1M5 22h1M392 22h1M5 23h1M392 23h1M6 24h1M391 24h1M8 26h1M389 26h1M10 28h1M387 28h1M9 29h2M387 29h2M7 30h1M9 30h1M388 30h1M390 30h1M8 31h1M11 31h2M385 31h2M389 31h1M7 32h1M11 32h1M386 32h1M390 32h1M11 33h1M386 33h1M9 34h1M388 34h1M8 35h2M388 35h2M8 36h1M389 36h1M8 37h1M389 37h1M8 38h1M389 38h1M8 39h1M389 39h1M8 40h1M389 40h1M8 41h1M389 41h1M8 42h1M389 42h1M8 43h1M389 43h1M8 44h1M389 44h1M8 45h1M389 45h1M8 46h1M389 46h1M8 47h1M389 47h1M8 48h1M389 48h1M8 49h1M389 49h1M8 50h1M389 50h1M8 51h1M389 51h1M8 52h1M389 52h1M8 53h1M389 53h1M8 54h1M389 54h1M8 55h1M389 55h1M8 56h1M389 56h1M8 57h1M389 57h1M8 58h1M389 58h1M8 59h1M389 59h1M8 60h1M389 60h1M8 61h1M389 61h1M8 62h1M389 62h1M8 63h1M389 63h1M8 64h1M389 64h1M8 65h1M389 65h1M8 66h1M389 66h1M8 67h1M389 67h1M8 68h1M389 68h1M8 69h1M389 69h1M8 70h1M389 70h1M8 71h1M389 71h1M8 72h1M389 72h1M8 73h1M389 73h1M8 74h1M389 74h1M8 75h1M389 75h1M8 76h1M389 76h1M8 77h1M389 77h1M8 78h1M389 78h1M8 79h1M389 79h1M8 80h1M389 80h1M8 81h1M389 81h1M8 82h1M389 82h1M8 83h1M389 83h1M8 84h1M389 84h1M8 85h1M389 85h1M8 86h1M389 86h1M8 87h1M389 87h1M8 88h1M389 88h1M8 89h1M389 89h1M8 90h1M389 90h1M8 91h1M389 91h1M8 92h1M389 92h1M8 93h1M389 93h1M8 94h1M389 94h1M8 95h1M389 95h1M8 96h1M389 96h1M8 97h1M389 97h1M8 98h1M389 98h1M8 99h1M389 99h1M8 100h1M389 100h1M8 101h1M389 101h1M8 102h1M389 102h1M8 103h1M389 103h1M8 104h1M389 104h1M8 105h1M389 105h1M8 106h1M389 106h1M8 107h1M389 107h1M8 108h1M389 108h1M8 109h1M389 109h1M8 110h1M389 110h1M8 111h1M389 111h1M8 112h1M389 112h1M8 113h1M389 113h1M8 114h1M389 114h1M8 115h1M389 115h1M8 116h1M389 116h1M8 117h1M389 117h1M8 118h1M389 118h1M8 119h1M389 119h1M8 120h1M389 120h1M8 121h1M389 121h1M8 122h1M389 122h1M8 123h1M389 123h1M8 124h1M389 124h1M8 125h1M389 125h1M8 126h1M389 126h1M8 127h1M389 127h1M8 128h1M389 128h1M8 129h1M389 129h1M8 130h1M389 130h1M8 131h1M389 131h1M8 132h1M389 132h1M8 133h1M389 133h1M8 134h1M389 134h1M8 135h1M389 135h1M8 136h1M389 136h1M8 137h1M389 137h1M8 138h1M389 138h1M8 139h1M389 139h1M8 140h1M389 140h1M8 141h1M389 141h1M8 142h1M389 142h1M8 143h1M389 143h1M8 144h1M389 144h1M8 145h1M389 145h1M8 146h1M389 146h1M8 147h1M389 147h1M8 148h1M389 148h1M8 149h1M389 149h1M7 151h1M11 151h1M386 151h1M390 151h1M7 152h2M389 152h2M8 153h2M388 153h2M9 154h2M387 154h2M10 155h2M386 155h2M8 156h1M11 156h1M386 156h1M389 156h1M7 162h1M390 162h1M6 163h1M391 163h1M8 164h1M389 164h1M7 165h1M390 165h1M9 167h1M388 167h1M8 168h1M389 168h1M10 169h1M387 169h1M9 170h1M388 170h1M9 171h1M11 171h1M386 171h1M388 171h1M9 172h2M387 172h2" />
<path stroke="#ffffe5" d="M10 11h1M387 11h1M10 12h1M387 12h1M9 13h1M388 13h1M9 14h1M388 14h1M8 15h1M389 15h1M8 16h1M389 16h1M8 17h1M389 17h1M7 18h1M390 18h1M7 19h1M390 19h1M10 27h1M387 27h1M9 28h1M388 28h1M8 30h1M389 30h1M7 31h1M390 31h1M12 32h1M385 32h1M9 36h1M388 36h1M9 37h1M388 37h1M9 38h1M388 38h1M9 39h1M388 39h1M9 40h1M388 40h1M9 41h1M388 41h1M9 42h1M388 42h1M9 43h1M388 43h1M9 44h1M388 44h1M9 45h1M388 45h1M9 46h1M388 46h1M9 47h1M388 47h1M9 48h1M388 48h1M9 49h1M388 49h1M9 50h1M388 50h1M9 51h1M388 51h1M9 52h1M388 52h1M9 53h1M388 53h1M9 54h1M388 54h1M9 55h1M388 55h1M9 56h1M388 56h1M9 57h1M388 57h1M9 58h1M388 58h1M9 59h1M388 59h1M9 60h1M388 60h1M9 61h1M388 61h1M9 62h1M388 62h1M9 63h1M388 63h1M9 64h1M388 64h1M9 65h1M388 65h1M9 66h1M388 66h1M9 67h1M388 67h1M9 68h1M388 68h1M9 69h1M388 69h1M9 70h1M388 70h1M9 71h1M388 71h1M9 72h1M388 72h1M9 73h1M388 73h1M9 74h1M388 74h1M9 75h1M388 75h1M9 76h1M388 76h1M9 77h1M388 77h1M9 78h1M388 78h1M9 79h1M388 79h1M9 80h1M388 80h1M9 81h1M388 81h1M9 82h1M388 82h1M9 83h1M388 83h1M9 84h1M388 84h1M9 85h1M388 85h1M9 86h1M388 86h1M9 87h1M388 87h1M9 88h1M388 88h1M9 89h1M388 89h1M9 90h1M388 90h1M9 91h1M388 91h1M9 92h1M388 92h1M9 93h1M388 93h1M9 94h1M388 94h1M9 95h1M388 95h1M9 96h1M388 96h1M9 97h1M388 97h1M9 98h1M388 98h1M9 99h1M388 99h1M9 100h1M388 100h1M9 101h1M388 101h1M9 102h1M388 102h1M9 103h1M388 103h1M9 104h1M388 104h1M9 105h1M388 105h1M9 106h1M388 106h1M9 107h1M388 107h1M9 108h1M388 108h1M9 109h1M388 109h1M9 110h1M388 110h1M9 111h1M388 111h1M9 112h1M388 112h1M9 113h1M388 113h1M9 114h1M388 114h1M9 115h1M388 115h1M9 116h1M388 116h1M9 117h1M388 117h1M9 118h1M388 118h1M9 119h1M388 119h1M9 120h1M388 120h1M9 121h1M388 121h1M9 122h1M388 122h1M9 123h1M388 123h1M9 124h1M388 124h1M9 125h1M388 125h1M9 126h1M388 126h1M9 127h1M388 127h1M9 128h1M388 128h1M9 129h1M388 129h1M9 130h1M388 130h1M9 131h1M388 131h1M9 132h1M388 132h1M9 133h1M388 133h1M9 134h1M388 134h1M9 135h1M388 135h1M9 136h1M388 136h1M9 137h1M388 137h1M9 138h1M388 138h1M9 139h1M388 139h1M9 140h1M388 140h1M9 141h1M388 141h1M9 142h1M388 142h1M9 143h1M388 143h1M9 144h1M388 144h1M9 145h1M388 145h1M9 146h1M388 146h1M9 147h1M388 147h1M9 148h1M388 148h1M9 149h1M11 149h1M386 149h1M388 149h1M7 150h1M9 150h1M11 150h2M385 150h2M388 150h1M390 150h1M8 151h1M12 151h1M385 151h1M389 151h1M9 152h1M388 152h1M10 153h1M387 153h1M11 154h1M386 154h1M7 163h1M390 163h1M7 164h1M390 164h1M8 165h1M389 165h1M8 166h1M389 166h1M8 167h1M389 167h1M9 168h1M388 168h1M9 169h1M388 169h1M10 170h1M387 170h1M10 171h1M387 171h1" />
<path stroke="#8a463a" d="M24 11h350M21 17h2M375 17h2M5 70h2M391 70h2M5 89h2M391 89h2M5 142h2M391 142h2" />
<path stroke="#a35e51" d="M23 12h4M28 12h2M368 12h2M371 12h4M22 14h2M374 14h2M12 24h1M385 24h1M6 57h1M391 57h1M6 58h1M391 58h1M6 59h1M391 59h1M6 128h1M391 128h1M5 129h2M391 129h2M5 130h2M391 130h2M5 131h2M391 131h2M6 132h1M391 132h1M6 136h1M391 136h1M6 137h1M391 137h1" />
<path stroke="#a36c5b" d="M27 12h1M30 12h338M370 12h1M23 13h2M373 13h2M22 15h2M374 15h2M20 19h2M376 19h2M19 20h2M377 20h2M17 21h3M378 21h3M14 22h4M380 22h4M11 23h4M383 23h4M6 35h1M391 35h1M6 51h1M391 51h1M6 55h1M391 55h1M5 56h2M391 56h2M5 57h1M392 57h1M6 60h1M391 60h1M6 63h1M391 63h1M6 64h1M391 64h1M5 65h2M391 65h2M5 66h2M391 66h2M6 73h1M391 73h1M5 74h2M391 74h2M5 75h2M391 75h2M5 76h2M391 76h2M6 77h1M391 77h1M5 79h2M391 79h2M5 80h2M391 80h2M6 81h1M391 81h1M6 82h1M391 82h1M5 83h2M391 83h2M6 84h1M391 84h1M5 85h2M391 85h2M5 86h2M391 86h2M6 87h1M391 87h1M5 91h2M391 91h2M5 92h2M391 92h2M5 93h2M391 93h2M5 94h2M391 94h2M5 96h2M391 96h2M5 97h2M391 97h2M6 98h1M391 98h1M5 99h2M391 99h2M5 100h2M391 100h2M6 101h1M391 101h1M5 102h2M391 102h2M5 103h2M391 103h2M5 104h2M391 104h2M5 107h1M392 107h1M6 108h1M391 108h1M6 109h1M391 109h1M6 110h1M391 110h1M6 120h1M391 120h1M6 121h1M391 121h1M6 122h1M391 122h1M5 123h2M391 123h2M6 126h1M391 126h1M5 127h2M391 127h2M5 128h1M392 128h1M5 132h1M392 132h1M6 133h1M391 133h1M5 135h2M391 135h2M5 136h1M392 136h1M5 137h1M392 137h1M5 138h2M391 138h2M5 144h2M391 144h2M5 145h2M391 145h2M6 146h1M391 146h1M5 147h2M391 147h2M5 148h1M392 148h1M5 152h1M392 152h1M6 153h1M391 153h1M5 154h1M392 154h1M5 156h1M392 156h1" />
<path stroke="#cc876c" d="M25 13h9M364 13h9M24 14h1M373 14h1M23 17h352M22 19h1M375 19h1M21 20h1M376 20h1M20 21h1M377 21h1M18 22h1M379 22h1M15 23h1M382 23h1M13 24h1M384 24h1M6 28h1M391 28h1M3 53h1M394 53h1M3 54h1M394 54h1M3 55h1M394 55h1M3 56h1M394 56h1M3 57h1M394 57h1M3 58h1M394 58h1M3 59h1M394 59h1M3 60h1M394 60h1M3 61h1M394 61h1M3 62h1M394 62h1M3 63h1M394 63h1M3 64h1M394 64h1M3 65h1M394 65h1M3 66h1M394 66h1M3 67h1M394 67h1M3 68h1M394 68h1M3 69h1M394 69h1M3 70h2M11 70h376M393 70h2M2 72h1M395 72h1M2 73h1M395 73h1M2 74h1M395 74h1M2 75h1M13 75h5M380 75h5M395 75h1M2 76h2M11 76h3M384 76h3M394 76h2M2 77h2M394 77h2M2 78h2M11 78h1M386 78h1M394 78h2M2 79h2M394 79h2M2 80h2M394 80h2M2 81h2M394 81h2M2 82h2M394 82h2M2 83h1M395 83h1M2 84h1M395 84h1M2 85h1M395 85h1M2 86h1M395 86h1M2 87h1M395 87h1M2 88h1M395 88h1M3 89h2M11 89h376M393 89h2M2 125h1M395 125h1M2 126h1M395 126h1M2 127h1M395 127h1M2 128h1M395 128h1M2 129h1M395 129h1M2 130h1M395 130h1M2 131h1M395 131h1M2 132h1M395 132h1M2 133h1M395 133h1M2 134h1M395 134h1M2 135h1M395 135h1M2 136h1M190 136h4M395 136h1M2 137h1M188 137h5M395 137h1M2 138h1M395 138h1M2 139h1M395 139h1M2 140h1M395 140h1M2 141h1M395 141h1M2 142h3M11 142h376M393 142h3M35 155h2M35 156h4M4 158h1M393 158h1M11 159h1M386 159h1M14 160h1M383 160h1M17 161h1M380 161h1M19 162h1M378 162h1M20 163h1M377 163h1M21 165h1M376 165h1M22 168h1M375 168h1M23 170h1M24 171h1M373 171h1" />
<path stroke="#ffd789" d="M34 13h330M25 14h348M24 15h350M23 19h352M22 20h354M21 21h117M140 21h2M147 21h1M149 21h14M164 21h1M170 21h1M174 21h1M176 21h46M223 21h1M227 21h1M233 21h1M235 21h14M250 21h1M256 21h2M260 21h117M19 22h187M208 22h171M16 23h189M207 23h175M15 24h368M13 25h106M121 25h69M192 25h85M279 25h106M14 26h370M13 27h372M16 28h8M25 28h2M28 28h342M371 28h2M374 28h8M13 29h372M13 30h20M34 30h330M365 30h20M4 31h1M17 31h1M21 31h1M23 31h9M33 31h332M366 31h9M376 31h1M380 31h1M393 31h1M14 32h370M3 33h2M14 33h370M393 33h2M12 36h374M11 37h376M11 38h376M12 39h138M155 39h7M164 39h70M236 39h7M248 39h138M11 40h100M113 40h11M125 40h148M274 40h11M287 40h100M11 41h2M17 41h34M53 41h1M59 41h1M62 41h1M64 41h50M115 41h2M118 41h2M123 41h152M278 41h2M281 41h2M284 41h50M335 41h1M338 41h1M344 41h1M347 41h34M385 41h2M11 42h1M14 42h93M109 42h180M291 42h93M386 42h1M13 43h1M16 43h7M27 43h2M30 43h53M84 43h1M86 43h25M113 43h172M287 43h25M313 43h1M315 43h53M369 43h2M375 43h7M384 43h1M14 44h38M53 44h11M66 44h1M72 44h1M75 44h1M77 44h36M116 44h166M285 44h36M322 44h1M325 44h1M331 44h1M334 44h11M346 44h38M11 45h2M18 45h1M21 45h1M24 45h93M123 45h152M281 45h93M376 45h1M379 45h1M385 45h2M11 46h376M12 47h1M14 47h2M20 47h1M22 47h354M377 47h1M382 47h2M385 47h1M11 48h376M14 49h370M15 50h1M19 50h1M25 50h1M28 50h1M30 50h338M369 50h1M372 50h1M378 50h1M382 50h1M11 51h376M11 54h376M12 55h1M15 55h2M18 55h362M381 55h2M385 55h1M11 56h376M11 57h16M28 57h2M31 57h336M368 57h2M371 57h16M11 58h1M17 58h1M19 58h9M31 58h164M196 58h1M198 58h2M201 58h1M203 58h164M370 58h9M380 58h1M386 58h1M11 59h376M11 60h376M13 61h185M200 61h185M12 62h6M20 62h1M26 62h1M29 62h1M33 62h1M35 62h328M364 62h1M368 62h1M371 62h1M377 62h1M380 62h6M11 63h376M13 64h1M16 64h366M384 64h1M11 65h5M23 65h1M26 65h1M28 65h342M371 65h1M374 65h1M382 65h5M11 66h31M46 66h1M48 66h302M351 66h1M356 66h31M13 67h372M11 68h376M3 72h1M394 72h1M11 73h376M4 74h1M17 74h364M393 74h1M24 75h350M19 76h360M13 77h1M15 77h368M384 77h1M12 78h1M14 78h3M20 78h1M23 78h352M377 78h1M381 78h3M385 78h1M15 79h1M18 79h362M382 79h1M11 80h1M13 80h372M386 80h1M12 81h374M13 82h1M15 82h4M23 82h352M379 82h4M384 82h1M11 83h376M25 84h348M11 85h2M16 85h366M385 85h2M12 86h3M21 86h1M24 86h350M376 86h1M383 86h3M11 87h376M3 88h1M11 88h1M13 88h2M383 88h2M386 88h1M394 88h1M2 91h3M11 91h376M393 91h3M3 92h2M11 92h376M393 92h2M11 93h15M27 93h2M33 93h1M35 93h102M139 93h2M146 93h1M148 93h14M163 93h1M169 93h1M173 93h1M175 93h48M224 93h1M228 93h1M234 93h1M236 93h14M251 93h1M257 93h2M261 93h102M364 93h1M369 93h2M372 93h15M3 94h2M11 94h178M191 94h196M393 94h2M4 95h1M11 95h29M41 95h1M44 95h1M50 95h1M54 95h136M192 95h6M200 95h144M347 95h1M353 95h1M356 95h1M358 95h29M393 95h1M3 96h2M11 96h131M143 96h1M146 96h1M150 96h24M178 96h2M181 96h2M184 96h4M189 96h2M194 96h12M207 96h1M210 96h4M215 96h2M218 96h2M224 96h24M251 96h1M254 96h1M256 96h131M393 96h2M4 97h1M12 97h1M15 97h1M17 97h57M75 97h2M81 97h126M209 97h108M321 97h2M324 97h57M382 97h1M385 97h1M393 97h1M11 98h19M31 98h1M37 98h1M40 98h11M52 98h2M57 98h284M344 98h2M347 98h11M360 98h1M366 98h1M368 98h19M3 99h2M11 99h50M63 99h1M69 99h1M72 99h1M74 99h250M325 99h1M328 99h1M334 99h1M337 99h50M393 99h2M11 100h376M4 101h1M11 101h376M393 101h1M11 102h31M43 102h1M50 102h1M53 102h1M55 102h288M344 102h1M347 102h1M354 102h1M356 102h31M3 103h2M16 103h1M20 103h1M22 103h354M377 103h1M381 103h1M393 103h2M11 104h376M2 105h2M13 105h372M394 105h2M11 108h376M11 109h376M11 110h376M11 111h376M11 112h376M11 113h1M16 113h33M52 113h1M55 113h288M345 113h1M349 113h33M386 113h1M13 114h372M12 115h1M15 115h7M26 115h2M29 115h340M370 115h2M376 115h7M385 115h1M13 116h33M49 116h2M52 116h130M183 116h1M186 116h1M192 116h12M205 116h1M211 116h1M214 116h1M216 116h130M347 116h2M352 116h33M11 117h1M17 117h1M20 117h1M23 117h6M30 117h1M33 117h1M39 117h1M42 117h314M358 117h1M364 117h1M367 117h1M369 117h6M377 117h1M380 117h1M386 117h1M11 118h376M11 119h1M13 119h2M19 119h1M21 119h161M183 119h2M186 119h1M189 119h1M195 119h10M208 119h1M211 119h4M216 119h161M378 119h1M383 119h2M386 119h1M11 120h376M13 121h372M14 122h1M18 122h1M24 122h1M27 122h1M29 122h2M32 122h334M367 122h2M370 122h1M373 122h1M379 122h1M383 122h1M11 123h376M11 126h376M11 127h1M14 127h2M17 127h364M382 127h2M386 127h1M4 128h1M11 128h19M32 128h1M34 128h1M36 128h6M47 128h2M50 128h298M349 128h2M356 128h6M363 128h1M365 128h1M368 128h19M393 128h1M4 129h1M11 129h15M27 129h2M33 129h1M35 129h1M37 129h324M362 129h1M364 129h1M369 129h2M372 129h15M393 129h1M16 130h1M18 130h9M32 130h152M186 130h1M192 130h1M195 130h1M197 130h4M202 130h1M205 130h1M211 130h1M214 130h152M371 130h9M381 130h1M11 131h376M11 132h376M12 133h168M183 133h2M186 133h11M201 133h11M213 133h2M218 133h168M11 134h6M19 134h1M25 134h1M28 134h1M32 134h1M34 134h141M176 134h46M223 134h141M365 134h1M369 134h1M372 134h1M378 134h1M381 134h6M11 135h180M193 135h194M12 136h1M15 136h174M195 136h188M385 136h1M4 137h1M11 137h4M22 137h1M25 137h1M27 137h2M30 137h157M195 137h173M369 137h2M372 137h1M375 137h1M383 137h4M393 137h1M4 138h1M11 138h30M45 138h1M47 138h141M194 138h157M352 138h1M357 138h30M393 138h1M12 139h374M11 140h376M3 144h2M11 144h376M393 144h2M4 145h1M11 145h376M393 145h1M11 146h16M28 146h2M34 146h1M36 146h326M363 146h1M368 146h2M371 146h16M4 147h1M11 147h195M208 147h179M393 147h1M12 148h29M42 148h1M45 148h1M48 148h157M207 148h143M352 148h1M355 148h1M357 148h29M4 149h1M13 149h176M190 149h13M206 149h1M209 149h176M393 149h1M16 150h1M18 150h188M208 150h172M381 150h1M14 151h14M29 151h1M32 151h1M38 151h1M41 151h316M359 151h1M365 151h1M368 151h1M370 151h14M4 152h1M13 152h372M393 152h1M12 153h12M25 153h2M28 153h342M371 153h2M374 153h12M13 154h372M13 155h20M38 155h5M44 155h1M48 155h302M353 155h1M355 155h30M4 156h1M17 156h1M21 156h1M23 156h9M33 156h1M40 156h318M359 156h16M376 156h1M380 156h1M393 156h1M13 157h20M38 157h322M361 157h1M365 157h20M3 158h1M12 158h1M14 158h370M385 158h1M394 158h1M15 160h1M382 160h1M18 161h362M20 162h358M21 163h356M21 164h356M22 165h354M22 166h354M22 167h354M27 168h2M30 168h53M84 168h1M86 168h25M113 168h15M130 168h3M135 168h15M158 168h82M248 168h15M265 168h3M270 168h15M287 168h25M313 168h1M315 168h53M369 168h2M23 169h24M50 169h2M53 169h11M66 169h1M72 169h1M75 169h1M77 169h36M116 169h8M127 169h9M137 169h11M150 169h8M161 169h19M181 169h1M184 169h1M187 169h1M193 169h1M196 169h6M204 169h1M210 169h1M213 169h1M216 169h1M218 169h19M240 169h8M250 169h11M262 169h9M274 169h8M285 169h36M322 169h1M325 169h1M331 169h1M334 169h11M346 169h2M351 169h24M24 170h6M31 170h1M34 170h1M40 170h1M43 170h74M123 170h15M139 170h7M148 170h14M163 170h72M236 170h14M252 170h7M260 170h2M266 170h1M269 170h40M310 170h1M312 170h60M373 170h2" />
<path stroke="#a05948" d="M22 16h2M374 16h2M21 18h2M375 18h2M5 34h1M392 34h1M5 35h1M392 35h1M6 36h1M391 36h1M6 37h1M391 37h1M6 38h1M391 38h1M6 39h1M391 39h1M6 40h1M391 40h1M6 41h1M391 41h1M6 42h1M391 42h1M6 43h1M391 43h1M6 44h1M391 44h1M6 45h1M391 45h1M6 46h1M391 46h1M6 47h1M391 47h1M6 48h1M391 48h1M6 49h1M391 49h1M6 50h1M391 50h1M5 51h1M392 51h1M5 52h2M391 52h2M5 69h2M391 69h2M5 71h2M391 71h2M5 90h2M391 90h2M5 106h2M391 106h2M5 108h1M392 108h1M5 109h1M392 109h1M5 110h1M392 110h1M5 111h1M392 111h1M5 112h1M392 112h1M5 113h1M392 113h1M5 114h1M392 114h1M5 115h1M392 115h1M5 116h1M392 116h1M5 117h1M392 117h1M5 118h1M392 118h1M5 119h1M392 119h1M5 120h1M392 120h1M5 121h1M392 121h1M5 122h1M392 122h1M5 124h2M391 124h2M5 141h2M391 141h2M5 143h2M391 143h2" />
<path stroke="#f9b163" d="M24 16h350M23 18h352M2 19h1M395 19h1M2 20h1M395 20h1M2 21h1M395 21h1M2 22h1M395 22h1M2 23h1M395 23h1M2 24h1M4 24h1M393 24h1M395 24h1M2 25h1M4 25h1M393 25h1M395 25h1M2 26h1M4 26h1M393 26h1M395 26h1M2 27h1M4 27h1M393 27h1M395 27h1M2 28h1M4 28h1M393 28h1M395 28h1M2 29h1M395 29h1M2 30h1M33 30h1M364 30h1M395 30h1M2 31h1M395 31h1M2 32h1M395 32h1M2 33h1M395 33h1M2 34h3M12 34h374M393 34h3M3 52h2M11 52h376M393 52h2M4 53h1M393 53h1M4 68h1M393 68h1M4 69h1M11 69h376M393 69h1M2 71h3M11 71h376M393 71h3M3 75h1M12 75h1M18 75h3M377 75h3M385 75h1M394 75h1M14 76h1M383 76h1M11 77h1M386 77h1M3 83h1M394 83h1M15 88h368M2 89h1M395 89h1M1 90h4M11 90h376M393 90h4M1 91h1M396 91h1M1 92h1M396 92h1M1 93h1M396 93h1M1 94h1M396 94h1M1 95h1M396 95h1M1 96h1M396 96h1M1 97h1M396 97h1M1 98h1M396 98h1M1 99h1M396 99h1M1 100h1M396 100h1M1 101h1M396 101h1M1 102h1M396 102h1M1 103h1M396 103h1M1 104h1M396 104h1M1 105h1M396 105h1M1 106h4M11 106h376M393 106h4M4 107h1M393 107h1M4 123h1M393 123h1M2 124h3M11 124h376M393 124h3M3 125h1M394 125h1M191 135h2M189 136h1M194 136h1M187 137h1M193 137h2M3 140h1M394 140h1M3 141h2M11 141h376M393 141h2M2 143h3M11 143h376M393 143h3M2 144h1M395 144h1M2 145h1M395 145h1M2 146h1M395 146h1M2 147h1M395 147h1M2 148h1M395 148h1M2 149h1M395 149h1M2 150h1M395 150h1M2 151h1M395 151h1M2 152h1M395 152h1M2 153h1M395 153h1M2 154h1M395 154h1M2 155h1M33 155h2M37 155h1M395 155h1M2 156h1M34 156h1M39 156h1M358 156h1M395 156h1M2 157h1M395 157h1M2 158h1M395 158h1M2 159h2M12 159h374M394 159h2M25 171h348" />
<path stroke="#fef3b9" d="M3 20h1M394 20h1M3 21h1M138 21h2M142 21h5M148 21h1M249 21h1M251 21h5M258 21h2M394 21h1M3 22h1M394 22h1M3 23h1M394 23h1M3 24h1M394 24h1M3 25h1M5 25h1M392 25h1M394 25h1M3 26h1M5 26h1M392 26h1M394 26h1M3 27h1M5 27h1M392 27h1M394 27h1M3 28h1M5 28h1M24 28h1M27 28h1M370 28h1M373 28h1M392 28h1M394 28h1M3 29h1M394 29h1M3 30h2M393 30h2M3 31h1M32 31h1M365 31h1M394 31h1M3 32h2M393 32h2M13 33h1M384 33h1M11 35h376M11 36h1M386 36h1M11 39h1M150 39h5M243 39h5M386 39h1M111 40h2M124 40h1M273 40h1M285 40h2M114 41h1M117 41h1M120 41h3M275 41h3M280 41h1M283 41h1M23 43h4M29 43h1M368 43h1M371 43h4M11 47h1M13 47h1M384 47h1M386 47h1M11 49h3M384 49h3M11 50h4M16 50h3M20 50h5M26 50h2M29 50h1M368 50h1M370 50h2M373 50h5M379 50h3M383 50h4M11 53h376M4 54h1M393 54h1M4 55h1M393 55h1M4 56h1M393 56h1M4 57h1M27 57h1M370 57h1M393 57h1M4 58h1M12 58h5M18 58h1M28 58h3M367 58h3M379 58h1M381 58h5M393 58h1M4 59h1M393 59h1M4 60h1M393 60h1M4 61h1M393 61h1M4 62h1M11 62h1M18 62h2M21 62h5M27 62h2M30 62h3M34 62h1M363 62h1M365 62h3M369 62h2M372 62h5M378 62h2M386 62h1M393 62h1M4 63h1M393 63h1M4 64h1M393 64h1M4 65h1M393 65h1M4 66h1M393 66h1M4 67h1M393 67h1M4 72h1M11 72h376M393 72h1M3 73h2M393 73h2M3 74h1M394 74h1M4 75h1M393 75h1M4 76h1M393 76h1M4 77h1M393 77h1M4 78h1M393 78h1M4 79h1M393 79h1M4 80h1M393 80h1M4 81h1M393 81h1M4 82h1M393 82h1M4 83h1M393 83h1M3 84h2M393 84h2M3 85h2M393 85h2M3 86h2M11 86h1M386 86h1M393 86h2M3 87h2M393 87h2M4 88h1M12 88h1M385 88h1M393 88h1M2 92h1M395 92h1M2 93h3M26 93h1M29 93h4M34 93h1M137 93h2M141 93h5M147 93h1M250 93h1M252 93h5M259 93h2M363 93h1M365 93h4M371 93h1M393 93h3M2 94h1M395 94h1M2 95h2M198 95h2M394 95h2M2 96h1M174 96h4M180 96h1M183 96h1M214 96h1M217 96h1M220 96h4M395 96h1M2 97h2M74 97h1M77 97h4M317 97h4M323 97h1M394 97h2M2 98h3M393 98h3M2 99h1M395 99h1M2 100h3M393 100h3M2 101h2M394 101h2M2 102h3M42 102h1M44 102h6M51 102h2M54 102h1M343 102h1M345 102h2M348 102h6M355 102h1M393 102h3M2 103h1M395 103h1M2 104h3M393 104h3M4 105h1M11 105h2M385 105h2M393 105h1M11 107h376M22 115h4M28 115h1M369 115h1M372 115h4M182 116h1M184 116h2M187 116h5M204 116h1M206 116h5M212 116h2M215 116h1M12 119h1M385 119h1M11 121h2M385 121h2M11 122h3M15 122h3M19 122h5M25 122h2M28 122h1M31 122h1M366 122h1M369 122h1M371 122h2M374 122h5M380 122h3M384 122h3M4 125h1M11 125h376M393 125h1M3 126h2M393 126h2M3 127h2M393 127h2M3 128h1M42 128h5M49 128h1M348 128h1M351 128h5M394 128h1M3 129h1M26 129h1M371 129h1M394 129h1M3 130h2M11 130h5M17 130h1M27 130h5M366 130h5M380 130h1M382 130h5M393 130h2M3 131h2M393 131h2M3 132h2M393 132h2M3 133h2M393 133h2M3 134h2M17 134h2M20 134h5M26 134h2M29 134h3M33 134h1M364 134h1M366 134h3M370 134h2M373 134h5M379 134h2M393 134h2M3 135h2M393 135h2M3 136h2M393 136h2M3 137h1M394 137h1M3 138h1M188 138h6M394 138h1M3 139h2M393 139h2M4 140h1M393 140h1M3 145h1M394 145h1M3 146h2M27 146h1M30 146h4M35 146h1M362 146h1M364 146h4M370 146h1M393 146h2M3 147h1M394 147h1M3 148h2M393 148h2M3 149h1M394 149h1M3 150h2M393 150h2M3 151h2M393 151h2M3 152h1M394 152h1M3 153h2M24 153h1M27 153h1M370 153h1M373 153h1M393 153h2M3 154h2M393 154h2M3 155h2M43 155h1M45 155h3M350 155h3M354 155h1M393 155h2M3 156h1M32 156h1M394 156h1M3 157h2M33 157h5M360 157h1M362 157h3M393 157h2M13 158h1M384 158h1M16 160h366M23 168h4M29 168h1M368 168h1M371 168h4M180 169h1M182 169h2M185 169h2M188 169h5M194 169h2M202 169h2M205 169h5M211 169h2M214 169h2M217 169h1M262 170h4M267 170h2M372 170h1" />
<path stroke="#6f2433" d="M11 21h2M385 21h2M6 168h1M391 168h1M6 169h1M391 169h1" />
<path stroke="#43081a" d="M11 22h2M385 22h2M11 174h1M386 174h1M376 180h1" />
<path stroke="#370016" d="M11 24h1M386 24h1M12 25h1M385 25h1M12 26h1M385 26h1M12 27h1M385 27h1M12 28h1M385 28h1M6 30h1M391 30h1M5 31h1M392 31h1M5 32h1M392 32h1M5 33h1M392 33h1M6 34h1M391 34h1M6 148h1M391 148h1M5 149h1M392 149h1M5 150h1M392 150h1M5 151h1M392 151h1M6 152h1M391 152h1M6 155h1M391 155h1M6 156h1M391 156h1M6 157h1M391 157h1M5 158h1M392 158h1M385 173h1" />
<path stroke="#803544" d="M11 25h1M386 25h1M6 33h1M391 33h1M6 149h1M391 149h1M6 159h1M391 159h1M6 160h1M391 160h1" />
<path stroke="#a3665e" d="M11 26h1M386 26h1M11 27h1M386 27h1M11 28h1M386 28h1M6 32h1M391 32h1M6 150h1M391 150h1M6 151h1M391 151h1M6 158h1M391 158h1M5 159h1M392 159h1M5 160h1M392 160h1M6 161h1M391 161h1M6 162h1M391 162h1" />
<path stroke="#ffc069" d="M13 28h1M384 28h1" />
<path stroke="#ffcc79" d="M14 28h1M383 28h1" />
<path stroke="#ffd788" d="M15 28h1M382 28h1" />
<path stroke="#faba6e" d="M4 29h1M393 29h1" />
<path stroke="#f2e1ac" d="M5 29h1M392 29h1" />
<path stroke="#c7856d" d="M6 29h1M391 29h1" />
<path stroke="#fff8d9" d="M8 29h1M389 29h1" />
<path stroke="#2e0009" d="M11 29h1M386 29h1" />
<path stroke="#edc280" d="M12 29h1M385 29h1" />
<path stroke="#a37a73" d="M5 30h1M392 30h1M5 53h2M391 53h2M5 54h2M391 54h2M5 55h1M392 55h1M5 58h1M392 58h1M5 59h1M392 59h1M5 60h1M392 60h1M5 61h2M391 61h2M5 62h2M391 62h2M5 63h1M392 63h1M5 64h1M392 64h1M5 67h2M391 67h2M5 68h2M391 68h2M5 72h2M391 72h2M5 73h1M392 73h1M5 77h1M392 77h1M5 78h2M391 78h2M5 81h1M392 81h1M5 82h1M392 82h1M5 84h1M392 84h1M5 87h1M392 87h1M5 88h2M391 88h2M5 95h2M391 95h2M5 98h1M392 98h1M5 101h1M392 101h1M5 105h2M391 105h2M6 107h1M391 107h1M6 111h1M391 111h1M6 112h1M391 112h1M6 113h1M391 113h1M6 114h1M391 114h1M6 115h1M391 115h1M6 116h1M391 116h1M6 117h1M391 117h1M6 118h1M391 118h1M6 119h1M391 119h1M5 125h2M391 125h2M5 126h1M392 126h1M5 133h1M392 133h1M5 134h2M391 134h2M5 139h2M391 139h2M5 140h2M391 140h2M5 146h1M392 146h1M5 153h1M392 153h1M6 154h1M391 154h1M5 155h1M392 155h1M5 157h1M392 157h1" />
<path stroke="#a38089" d="M6 31h1M391 31h1" />
</svg>