<svg xmlns="http://www.w3.org/2000/svg" viewBox="0 -0.5 12 8" shape-rendering="crispEdges">
<metadata>Made with Pixels to Svg https://codepen.io/shshaw/pen/XbxvNj</metadata>
<path stroke="#60619a" d="M0 0h1M2 0h4M7 0h2M10 0h2M11 1h1M6 2h1M11 2h1M11 3h1M3 4h1M9 4h1M11 4h1M11 5h1M11 6h1M11 7h1" />
<path stroke="#8388fd" d="M1 0h1M6 0h1M9 0h1M0 1h1M2 1h4M7 1h2M10 1h1M0 2h1M2 2h1M4 2h1M8 2h1M10 2h1M0 3h1M2 3h1M9 3h2M0 4h3M10 4h1M0 5h3M10 5h1M0 6h1M2 6h1M10 6h1M0 7h1M2 7h1M10 7h1" />
<path stroke="#8caaff" d="M1 1h1M6 1h1M9 1h1M1 2h1M3 2h1M9 2h1M1 3h1M3 3h1M3 5h3M7 5h3M1 6h1M3 6h3M7 6h1M9 6h1M1 7h1M3 7h4M8 7h2" />
<path stroke="#212121" d="M5 2h1M4 3h3M4 4h2" />
<path stroke="#3d3d3d" d="M7 2h1M8 3h1M6 4h3" />
<path stroke="#6b6b6b" d="M7 3h1" />
<path stroke="#cc6400" d="M6 5h1" />
<path stroke="#fa9d00" d="M6 6h1M8 6h1M7 7h1" />
</svg>