<svg xmlns="http://www.w3.org/2000/svg" viewBox="0 -0.5 12 8" shape-rendering="crispEdges">
<metadata>Made with Pixels to Svg https://codepen.io/shshaw/pen/XbxvNj</metadata>
<path stroke="#60619a" d="M0 0h1M2 0h1M0 1h2M0 2h1M2 2h1M0 3h3M0 4h2M11 4h1M0 5h2M6 5h3M10 5h2M0 6h2M6 6h1M8 6h4M0 7h3M5 7h5M11 7h1" />
<path stroke="#3d3d3d" d="M1 0h1M3 0h3M7 0h1M10 0h2M2 1h3M6 1h1M11 1h1M1 2h1M3 2h3M10 2h1M6 3h1M8 3h1M11 3h1M6 4h5" />
<path stroke="#6b6b6b" d="M6 0h1M8 0h2M5 1h1M7 1h4M6 2h4M11 2h1M7 3h1M9 3h2" />
<path stroke="#8388fd" d="M3 3h1M2 4h2M2 5h1M5 5h1M9 5h1M2 6h1M4 6h2M7 6h1M3 7h2M10 7h1" />
<path stroke="#feff00" d="M4 3h1M5 4h1" />
<path stroke="#e2bb47" d="M5 3h1" />
<path stroke="#ffffa7" d="M4 4h1M3 6h1" />
<path stroke="#ffffff" d="M3 5h2" />
</svg>