<svg xmlns="http://www.w3.org/2000/svg" viewBox="0 -0.5 12 8" shape-rendering="crispEdges">
<metadata>Made with Pixels to Svg https://codepen.io/shshaw/pen/XbxvNj</metadata>
<path stroke="#7aceff" d="M0 0h12M11 1h1M11 2h1M11 3h1M11 4h1M11 5h1M11 6h1M11 7h1" />
<path stroke="#80eaff" d="M0 1h2M10 1h1M0 2h2M10 2h1M0 3h1M0 4h2M10 4h1M0 5h1M0 6h3M9 6h2M0 7h3M9 7h2" />
<path stroke="#ffffa7" d="M2 1h1M4 1h1M7 1h1M9 1h1M3 2h1M5 2h2M8 2h1M1 3h1M4 3h2M7 3h1M10 3h1M4 4h4M1 5h1M3 5h1M5 5h2M8 5h1M10 5h1M4 6h1M7 6h1M3 7h1M5 7h1M8 7h1" />
<path stroke="#baf2ff" d="M3 1h1M8 1h1M2 2h1M9 2h1M2 3h1M9 3h1M2 4h1M9 4h1M2 5h1M9 5h1M3 6h1M8 6h1M4 7h1M6 7h2" />
<path stroke="#feff00" d="M5 1h2M4 2h1M7 2h1M3 3h1M8 3h1M3 4h1M8 4h1M4 5h1M7 5h1M5 6h2" />
<path stroke="#ffffff" d="M6 3h1" />
</svg>