<svg xmlns="http://www.w3.org/2000/svg" viewBox="0 -0.5 12 8" shape-rendering="crispEdges">
<metadata>Made with Pixels to Svg https://codepen.io/shshaw/pen/XbxvNj</metadata>
<path stroke="#e7e2cf" d="M0 0h12M11 1h1M11 2h1M11 3h1M11 4h1M11 5h1M11 6h1M11 7h1" />
<path stroke="#ffffff" d="M0 1h2M9 1h2M0 2h2M9 2h2M0 3h2M9 3h2M0 4h2M9 4h2M0 5h3M8 5h3M0 6h4M7 6h4M0 7h11" />
<path stroke="#ffb4e7" d="M2 1h1M5 1h1M8 1h1M2 4h1M8 4h1M3 5h1M7 5h1M4 6h1M6 6h1" />
<path stroke="#ff6900" d="M3 1h2M6 1h2M3 2h1M6 2h1M3 3h5M4 4h3M5 5h1" />
<path stroke="#ff3700" d="M2 2h1M5 2h1M8 2h1M2 3h1M8 3h1M3 4h1M7 4h1M4 5h1M6 5h1M5 6h1" />
<path stroke="#ffb600" d="M4 2h1M7 2h1" />
</svg>