<svg xmlns="http://www.w3.org/2000/svg" viewBox="0 -0.5 12 8" shape-rendering="crispEdges">
<metadata>Made with Pixels to Svg https://codepen.io/shshaw/pen/XbxvNj</metadata>
<path stroke="#7aceff" d="M0 0h6M7 0h5M11 1h1M11 2h1M11 3h1M11 5h1M11 6h1M11 7h1" />
<path stroke="#cab7f3" d="M6 0h1M9 2h1M2 3h1M9 3h1M2 4h1M8 4h1M11 4h1M3 5h1M9 6h1M9 7h1" />
<path stroke="#baf2ff" d="M0 1h1M2 1h9M0 2h5M6 2h2M10 2h1M0 3h2M4 3h3M10 3h1M0 4h2M5 4h1M9 4h2M0 5h3M6 5h5M1 6h7M10 6h1M0 7h5M6 7h2M10 7h1" />
<path stroke="#ffb4e7" d="M1 1h1M5 2h1M8 2h1M3 3h1M7 4h1M4 5h1M0 6h1M8 6h1M5 7h1" />
<path stroke="#ccdde4" d="M7 3h1M4 4h1M6 4h1M5 5h1" />
<path stroke="#ffdbfb" d="M8 3h1M3 4h1M8 7h1" />
</svg>